<svg width="24" height="18" viewBox="0 0 24 18" fill="none" xmlns="http://www.w3.org/2000/svg">
<path d="M22.5 7.7152H4.71L10.155 2.10999C10.4096 1.84745 10.5321 1.50898 10.4955 1.16903C10.459 0.829086 10.2663 0.515513 9.96 0.297298C9.65368 0.0790819 9.25875 -0.0259025 8.86211 0.00544001C8.46547 0.0367826 8.09961 0.201885 7.845 0.464426L0.345 8.17802C0.294541 8.23937 0.249419 8.30383 0.21 8.37086C0.21 8.43514 0.21 8.47371 0.105 8.53799C0.0370105 8.68539 0.00141168 8.8423 0 9.0008C0.00141168 9.1593 0.0370105 9.31621 0.105 9.46362C0.105 9.5279 0.105 9.56647 0.21 9.63075C0.249419 9.69778 0.294541 9.76223 0.345 9.82359L7.845 17.5372C7.98603 17.6823 8.16264 17.799 8.36227 17.879C8.5619 17.959 8.77963 18.0003 9 18C9.35048 18.0006 9.69013 17.896 9.96 17.7043C10.1119 17.5964 10.2374 17.4638 10.3295 17.3143C10.4215 17.1647 10.4782 17.001 10.4963 16.8326C10.5144 16.6643 10.4936 16.4945 10.435 16.333C10.3765 16.1715 10.2813 16.0215 10.155 15.8916L4.71 10.2864H22.5C22.8978 10.2864 23.2794 10.151 23.5607 9.90986C23.842 9.66876 24 9.34177 24 9.0008C24 8.65984 23.842 8.33284 23.5607 8.09175C23.2794 7.85065 22.8978 7.7152 22.5 7.7152Z" fill="#212121"/>
</svg>
